<svg width="63" height="7" viewBox="0 0 63 7" fill="none" xmlns="http://www.w3.org/2000/svg">
<path id="Vector" d="M62.9974 3.13522C62.9974 4.54557 61.6103 5.5393 60.2776 5.08384C58.7353 4.55593 56.9808 4.08237 54.0152 4.08237C46.8366 4.08237 46.8366 6.45539 39.6581 6.45539C32.4795 6.45539 32.4795 4.08237 25.3009 4.08237C18.1224 4.08237 18.1224 6.45539 10.9412 6.45539C5.95454 6.45539 4.45879 5.50824 1.60703 4.79401C0.662483 4.55852 0 3.71233 0 2.7419C0 1.30567 1.40259 0.286072 2.76895 0.728586C4.96082 1.43506 6.72829 2.39252 10.9438 2.39252C18.1224 2.39252 18.1224 0.0195312 25.3009 0.0195312C32.4795 0.0195312 32.4795 2.39252 39.6581 2.39252C46.8366 2.39252 46.8366 0.0195312 54.0178 0.0195312C57.8581 0.0195312 59.6281 0.581069 61.5431 1.1685C62.41 1.43246 63 2.23208 63 3.13781" fill="#64B5FF"/>
</svg>
