<svg width="244" height="25" viewBox="0 0 244 25" fill="none" xmlns="http://www.w3.org/2000/svg">
<path id="Vector" d="M243.89 12.0399C243.89 17.4899 238.53 21.3299 233.38 19.5699C227.42 17.5299 220.64 15.7 209.18 15.7C181.44 15.7 181.44 24.87 153.7 24.87C125.96 24.87 125.96 15.7 98.2199 15.7C70.4799 15.7 70.4799 24.87 42.7299 24.87C23.4599 24.87 17.68 21.21 6.65997 18.45C3.00997 17.54 0.449951 14.2699 0.449951 10.5199C0.449951 4.9699 5.86996 1.02999 11.15 2.73999C19.62 5.46999 26.4499 9.16992 42.7399 9.16992C70.4799 9.16992 70.4799 0 98.2199 0C125.96 0 125.96 9.16992 153.7 9.16992C181.44 9.16992 181.44 0 209.19 0C224.03 0 230.87 2.16994 238.27 4.43994C241.62 5.45994 243.9 8.54993 243.9 12.0499" fill="#803F88"/>
</svg>
